<svg width="40" height="40" viewBox="0 0 40 40" fill="none" xmlns="http://www.w3.org/2000/svg">
<circle cx="20" cy="20" r="20" fill="white"/>
<path d="M27.0013 21.8375C27.0018 21.6881 26.9688 21.5405 26.9048 21.4055C26.8407 21.2705 26.7473 21.1516 26.6313 21.0575L20.6313 16.2275C20.4523 16.0804 20.2279 16 19.9963 16C19.7646 16 19.5402 16.0804 19.3613 16.2275L13.3613 21.2275C13.157 21.3972 13.0286 21.6411 13.0042 21.9056C12.9799 22.17 13.0615 22.4333 13.2313 22.6375C13.401 22.8417 13.6449 22.9701 13.9093 22.9945C14.1738 23.0189 14.437 22.9372 14.6413 22.7675L20.0013 18.2975L25.3613 22.6175C25.508 22.7398 25.6868 22.8174 25.8763 22.8413C26.0659 22.8652 26.2583 22.8343 26.4308 22.7522C26.6034 22.6702 26.7488 22.5404 26.8499 22.3783C26.9509 22.2162 27.0035 22.0285 27.0013 21.8375Z" fill="#000985"/>
</svg>
